<svg width="15" height="10" viewBox="0 0 15 10" fill="none" xmlns="http://www.w3.org/2000/svg">
<path fill-rule="evenodd" clip-rule="evenodd" d="M0.0625267 4.99994C0.0625267 4.85904 0.118498 4.72392 0.218126 4.62429C0.317755 4.52466 0.452881 4.46869 0.593777 4.46869H13.1238L9.78015 1.12606C9.73076 1.07667 9.69158 1.01803 9.66485 0.953496C9.63811 0.888961 9.62436 0.819791 9.62436 0.749939C9.62436 0.680086 9.63811 0.610917 9.66485 0.546381C9.69158 0.481846 9.73076 0.423207 9.78015 0.373814C9.82955 0.32442 9.88818 0.285239 9.95272 0.258508C10.0173 0.231776 10.0864 0.218018 10.1563 0.218018C10.2261 0.218018 10.2953 0.231776 10.3598 0.258508C10.4244 0.285239 10.483 0.32442 10.5324 0.373814L14.7824 4.62381C14.8319 4.67316 14.8711 4.73179 14.8979 4.79633C14.9247 4.86087 14.9385 4.93006 14.9385 4.99994C14.9385 5.06982 14.9247 5.13901 14.8979 5.20355C14.8711 5.26809 14.8319 5.32671 14.7824 5.37606L10.5324 9.62606C10.483 9.67546 10.4244 9.71464 10.3598 9.74137C10.2953 9.7681 10.2261 9.78186 10.1563 9.78186C10.0864 9.78186 10.0173 9.7681 9.95272 9.74137C9.88818 9.71464 9.82955 9.67546 9.78015 9.62606C9.73076 9.57667 9.69158 9.51803 9.66485 9.4535C9.63811 9.38896 9.62436 9.31979 9.62436 9.24994C9.62436 9.18009 9.63811 9.11092 9.66485 9.04638C9.69158 8.98184 9.73076 8.92321 9.78015 8.87381L13.1238 5.53119H0.593777C0.452881 5.53119 0.317755 5.47522 0.218126 5.37559C0.118498 5.27596 0.0625267 5.14083 0.0625267 4.99994Z" fill="#3A3A3A"/>
</svg>
