<svg width="32" height="32" viewBox="0 0 32 32" fill="none" xmlns="http://www.w3.org/2000/svg">
<path d="M0 2C0 0.895431 0.895431 0 2 0H30C31.1046 0 32 0.895431 32 2V30C32 31.1046 31.1046 32 30 32H2C0.895431 32 0 31.1046 0 30V2Z" fill="white"/>
<rect x="5.12012" y="5.11987" width="5.76" height="5.76" fill="#203469"/>
<rect x="5.12012" y="12.7998" width="5.76" height="5.76" fill="#EF6630"/>
<rect x="5.12012" y="21.1199" width="5.76" height="5.76" fill="#FCCD41"/>
<rect x="12.8003" y="5.11987" width="5.76" height="5.76" fill="#96D5F4"/>
<rect x="12.8003" y="12.7998" width="5.76" height="5.76" fill="#117ABC"/>
<rect x="12.8003" y="21.1199" width="5.76" height="5.76" fill="#C7CBCA"/>
<rect x="21.1201" y="5.11987" width="5.76" height="5.76" fill="#2DAC55"/>
<rect x="21.1201" y="12.7998" width="5.76" height="5.76" fill="#C0D339"/>
<rect x="21.1201" y="21.1199" width="5.76" height="5.76" fill="#94B7E1"/>
</svg>
