<svg width="21" height="21" viewBox="0 0 21 21" fill="none" xmlns="http://www.w3.org/2000/svg">
<path d="M18.6958 0.734375H2.3042C1.4375 0.734375 0.734375 1.4375 0.734375 2.3042V18.6958C0.734375 19.5625 1.4375 20.2656 2.3042 20.2656H18.6958C19.5625 20.2656 20.2656 19.5625 20.2656 18.6958V2.3042C20.2656 1.4375 19.5625 0.734375 18.6958 0.734375ZM18.6958 18.7031C7.76318 18.7007 2.29688 18.6982 2.29688 18.6958C2.29932 7.76318 2.30176 2.29688 2.3042 2.29688C13.2368 2.29932 18.7031 2.30176 18.7031 2.3042C18.7007 13.2368 18.6982 18.7031 18.6958 18.7031ZM3.62988 8.05615H6.52783V17.3774H3.62988V8.05615ZM5.08008 6.78174C6.00537 6.78174 6.75977 6.02979 6.75977 5.10205C6.75977 4.88147 6.71632 4.66305 6.63191 4.45926C6.5475 4.25547 6.42377 4.07031 6.2678 3.91433C6.11182 3.75836 5.92666 3.63463 5.72287 3.55022C5.51908 3.46581 5.30066 3.42236 5.08008 3.42236C4.8595 3.42236 4.64108 3.46581 4.43729 3.55022C4.2335 3.63463 4.04833 3.75836 3.89236 3.91433C3.73639 4.07031 3.61266 4.25547 3.52825 4.45926C3.44384 4.66305 3.40039 4.88147 3.40039 5.10205C3.39795 6.02979 4.1499 6.78174 5.08008 6.78174ZM11.2397 12.7656C11.2397 11.5498 11.4717 10.373 12.978 10.373C14.4624 10.373 14.4844 11.7622 14.4844 12.8438V17.3774H17.3799V12.2651C17.3799 9.75537 16.8379 7.82422 13.9058 7.82422C12.4971 7.82422 11.5522 8.59814 11.1641 9.33057H11.125V8.05615H8.34424V17.3774H11.2397V12.7656Z" fill="#3A3A3A"/>
</svg>
