<svg width="19" height="19" viewBox="0 0 19 19" fill="none" xmlns="http://www.w3.org/2000/svg">
<path fill-rule="evenodd" clip-rule="evenodd" d="M5.57121 0.0568755C6.58205 0.010341 6.90434 0 9.47925 0C12.0542 0 12.3765 0.0112027 13.3864 0.0568755C14.3964 0.102548 15.0858 0.263695 15.689 0.49723C16.3207 0.735934 16.8937 1.10907 17.3677 1.59165C17.8503 2.06475 18.2226 2.63695 18.4604 3.26948C18.6948 3.8727 18.8551 4.5621 18.9016 5.57035C18.9482 6.58291 18.9585 6.9052 18.9585 9.47925C18.9585 12.0542 18.9473 12.3765 18.9016 13.3873C18.8559 14.3955 18.6948 15.0849 18.4604 15.6882C18.2226 16.3208 17.8497 16.8939 17.3677 17.3677C16.8937 17.8503 16.3207 18.2226 15.689 18.4604C15.0858 18.6948 14.3964 18.8551 13.3881 18.9016C12.3765 18.9482 12.0542 18.9585 9.47925 18.9585C6.90434 18.9585 6.58205 18.9473 5.57121 18.9016C4.56297 18.8559 3.87357 18.6948 3.27034 18.4604C2.63775 18.2225 2.0646 17.8496 1.59079 17.3677C1.10854 16.8943 0.735344 16.3214 0.49723 15.689C0.263695 15.0858 0.10341 14.3964 0.0568755 13.3881C0.010341 12.3756 0 12.0533 0 9.47925C0 6.90434 0.0112027 6.58205 0.0568755 5.57207C0.102548 4.5621 0.263695 3.8727 0.49723 3.26948C0.735695 2.63702 1.10917 2.06416 1.59165 1.59079C2.06479 1.10864 2.63736 0.735455 3.26948 0.49723C3.8727 0.263695 4.5621 0.10341 5.57035 0.0568755H5.57121ZM13.3097 1.76314C12.3101 1.71747 12.0102 1.70799 9.47925 1.70799C6.94829 1.70799 6.6484 1.71747 5.64877 1.76314C4.72411 1.80537 4.22257 1.95962 3.88822 2.08974C3.44614 2.26209 3.12988 2.46633 2.7981 2.7981C2.4836 3.10407 2.24157 3.47654 2.08974 3.88822C1.95962 4.22257 1.80537 4.72411 1.76314 5.64877C1.71747 6.6484 1.70799 6.94829 1.70799 9.47925C1.70799 12.0102 1.71747 12.3101 1.76314 13.3097C1.80537 14.2344 1.95962 14.7359 2.08974 15.0703C2.24141 15.4813 2.48356 15.8545 2.7981 16.1604C3.10402 16.4749 3.47716 16.7171 3.88822 16.8688C4.22257 16.9989 4.72411 17.1531 5.64877 17.1954C6.6484 17.241 6.94743 17.2505 9.47925 17.2505C12.0111 17.2505 12.3101 17.241 13.3097 17.1954C14.2344 17.1531 14.7359 16.9989 15.0703 16.8688C15.5124 16.6964 15.8286 16.4922 16.1604 16.1604C16.4749 15.8545 16.7171 15.4813 16.8688 15.0703C16.9989 14.7359 17.1531 14.2344 17.1954 13.3097C17.241 12.3101 17.2505 12.0102 17.2505 9.47925C17.2505 6.94829 17.241 6.6484 17.1954 5.64877C17.1531 4.72411 16.9989 4.22257 16.8688 3.88822C16.6964 3.44614 16.4922 3.12988 16.1604 2.7981C15.8544 2.48362 15.4819 2.24159 15.0703 2.08974C14.7359 1.95962 14.2344 1.80537 13.3097 1.76314ZM8.26849 12.4014C8.94467 12.6829 9.6976 12.7209 10.3987 12.5089C11.0998 12.2969 11.7055 11.8481 12.1124 11.2392C12.5194 10.6302 12.7022 9.89881 12.6298 9.16997C12.5575 8.44113 12.2343 7.76003 11.7155 7.24301C11.3848 6.91251 10.9849 6.65944 10.5447 6.50203C10.1044 6.34462 9.63473 6.28678 9.16945 6.33267C8.70416 6.37856 8.25483 6.52705 7.85382 6.76743C7.4528 7.00782 7.11008 7.33413 6.85031 7.72287C6.59054 8.11162 6.4202 8.55312 6.35154 9.01559C6.28288 9.47807 6.31762 9.95002 6.45325 10.3975C6.58888 10.8449 6.82203 11.2567 7.13591 11.6032C7.44979 11.9497 7.8366 12.2224 8.26849 12.4014ZM6.03397 6.03397C6.48641 5.58153 7.02354 5.22264 7.61468 4.97778C8.20582 4.73292 8.8394 4.60689 9.47925 4.60689C10.1191 4.60689 10.7527 4.73292 11.3438 4.97778C11.935 5.22264 12.4721 5.58153 12.9245 6.03397C13.377 6.48641 13.7359 7.02354 13.9807 7.61468C14.2256 8.20582 14.3516 8.8394 14.3516 9.47925C14.3516 10.1191 14.2256 10.7527 13.9807 11.3438C13.7359 11.935 13.377 12.4721 12.9245 12.9245C12.0108 13.8383 10.7715 14.3516 9.47925 14.3516C8.18702 14.3516 6.94772 13.8383 6.03397 12.9245C5.12023 12.0108 4.60689 10.7715 4.60689 9.47925C4.60689 8.18702 5.12023 6.94772 6.03397 6.03397ZM15.4322 5.33251C15.5443 5.22674 15.6341 5.09956 15.6962 4.95849C15.7583 4.81741 15.7914 4.66531 15.7936 4.5112C15.7959 4.35709 15.7672 4.20409 15.7093 4.06126C15.6513 3.91844 15.5653 3.78869 15.4563 3.67971C15.3473 3.57072 15.2176 3.48471 15.0748 3.42676C14.9319 3.36882 14.7789 3.34012 14.6248 3.34237C14.4707 3.34461 14.3186 3.37776 14.1775 3.43984C14.0365 3.50193 13.9093 3.59168 13.8035 3.7038C13.5978 3.92185 13.4852 4.21148 13.4896 4.5112C13.4939 4.81092 13.615 5.09715 13.8269 5.30911C14.0389 5.52106 14.3251 5.64207 14.6248 5.64644C14.9245 5.65081 15.2142 5.5382 15.4322 5.33251Z" fill="#3A3A3A"/>
</svg>
