<svg width="25" height="25" viewBox="0 0 25 25" fill="none" xmlns="http://www.w3.org/2000/svg">
<path d="M23 12.4354C23 12.3846 23 12.3269 22.9977 12.2599C22.9953 12.0729 22.9906 11.8629 22.9859 11.639C22.9672 10.9949 22.9344 10.3532 22.8828 9.74838C22.8125 8.91505 22.7094 8.22022 22.5687 7.69852C22.4204 7.15408 22.1295 6.65755 21.7252 6.25853C21.3209 5.85952 20.8173 5.57201 20.2648 5.42475C19.6016 5.24931 18.3031 5.14081 16.475 5.07387C15.6055 5.04155 14.675 5.02078 13.7445 5.00923C13.4187 5.00462 13.1164 5.00231 12.8445 5H12.1555C11.8836 5.00231 11.5813 5.00462 11.2555 5.00923C10.325 5.02078 9.39453 5.04155 8.525 5.07387C6.69687 5.14312 5.39609 5.25162 4.73516 5.42475C4.1825 5.57165 3.67876 5.85904 3.2744 6.25811C2.87004 6.65717 2.57928 7.15391 2.43125 7.69852C2.28828 8.22022 2.1875 8.91505 2.11719 9.74838C2.06562 10.3532 2.03281 10.9949 2.01406 11.639C2.00703 11.8629 2.00469 12.0729 2.00234 12.2599C2.00234 12.3269 2 12.3846 2 12.4354V12.5646C2 12.6154 2 12.6731 2.00234 12.7401C2.00469 12.9271 2.00937 13.1371 2.01406 13.361C2.03281 14.0051 2.06562 14.6468 2.11719 15.2516C2.1875 16.0849 2.29063 16.7798 2.43125 17.3015C2.73125 18.4072 3.6125 19.2798 4.73516 19.5753C5.39609 19.7507 6.69687 19.8592 8.525 19.9261C9.39453 19.9584 10.325 19.9792 11.2555 19.9908C11.5813 19.9954 11.8836 19.9977 12.1555 20H12.8445C13.1164 19.9977 13.4187 19.9954 13.7445 19.9908C14.675 19.9792 15.6055 19.9584 16.475 19.9261C18.3031 19.8569 19.6039 19.7484 20.2648 19.5753C21.3875 19.2798 22.2687 18.4095 22.5687 17.3015C22.7117 16.7798 22.8125 16.0849 22.8828 15.2516C22.9344 14.6468 22.9672 14.0051 22.9859 13.361C22.993 13.1371 22.9953 12.9271 22.9977 12.7401C22.9977 12.6731 23 12.6154 23 12.5646V12.4354ZM21.3125 12.5554C21.3125 12.6039 21.3125 12.657 21.3102 12.7193C21.3078 12.8994 21.3031 13.0979 21.2984 13.3126C21.282 13.9266 21.2492 14.5406 21.2 15.1108C21.1367 15.8541 21.0477 16.4635 20.9375 16.8721C20.7922 17.4054 20.3656 17.8278 19.8266 17.9686C19.3344 18.0979 18.0945 18.2018 16.4094 18.2641C15.5562 18.2964 14.6375 18.3172 13.7211 18.3287C13.4 18.3333 13.1023 18.3356 12.8352 18.3356H12.1648L11.2789 18.3287C10.3625 18.3172 9.44609 18.2964 8.59063 18.2641C6.90547 18.1994 5.66328 18.0979 5.17344 17.9686C4.63437 17.8255 4.20781 17.4054 4.0625 16.8721C3.95234 16.4635 3.86328 15.8541 3.8 15.1108C3.75078 14.5406 3.72031 13.9266 3.70156 13.3126C3.69453 13.0979 3.69219 12.897 3.68984 12.7193C3.68984 12.657 3.6875 12.6016 3.6875 12.5554V12.4446C3.6875 12.3961 3.6875 12.343 3.68984 12.2807C3.69219 12.1006 3.69688 11.9021 3.70156 11.6874C3.71797 11.0734 3.75078 10.4594 3.8 9.8892C3.86328 9.14589 3.95234 8.53647 4.0625 8.12789C4.20781 7.59464 4.63437 7.17221 5.17344 7.03139C5.66562 6.90212 6.90547 6.79825 8.59063 6.73592C9.44375 6.7036 10.3625 6.68283 11.2789 6.67128C11.6 6.66667 11.8977 6.66436 12.1648 6.66436H12.8352L13.7211 6.67128C14.6375 6.68283 15.5539 6.7036 16.4094 6.73592C18.0945 6.80055 19.3367 6.90212 19.8266 7.03139C20.3656 7.17452 20.7922 7.59464 20.9375 8.12789C21.0477 8.53647 21.1367 9.14589 21.2 9.8892C21.2492 10.4594 21.2797 11.0734 21.2984 11.6874C21.3055 11.9021 21.3078 12.103 21.3102 12.2807C21.3102 12.343 21.3125 12.3984 21.3125 12.4446V12.5554ZM10.4141 15.5933L15.8516 12.4769L10.4141 9.40674V15.5933Z" fill="#3A3A3A"/>
</svg>
